<svg id="Layer_1" data-name="Layer 1" xmlns="http://www.w3.org/2000/svg" viewBox="0 0 206.58 97.01"><defs><style>.cls-1{fill:#f25d38;}.cls-2{fill:#40d695;}.cls-3{fill:#29335c;}</style></defs><path class="cls-1" d="M279.29,134.25V119.5h1V104c-1.15-3.81-1.86-6.43-2.24-7.55h0v0c0-.08-.05-.15-.07-.21l0,0a1.62,1.62,0,0,0-.06-.17v0l-.06-.15s-3.39,7.07-3.39,24.7h1.47l.36-1h-.1c0,.61-.38.75-.38,1.45s.88,1.07.88,2.07-.57,1.86-.57,4.54a33.27,33.27,0,0,0,.57,4.8c0,.93-.34,1.23-.34,2.13a1.5,1.5,0,0,0,1.58,1.56.78.78,0,0,0,.22,0h0C278.93,135.87,279.28,134.9,279.29,134.25Zm-1.18-1.1a.45.45,0,0,1,0-.9.45.45,0,0,1,0,.9Zm0-5.28a.45.45,0,0,1,0-.89.45.45,0,0,1,0,.89Zm0-5.27a.45.45,0,0,1,0-.9.45.45,0,0,1,0,.9Z" transform="translate(-148.71 -95.5)"/><path class="cls-1" d="M339.91,95.5H334a.72.72,0,0,0-.66.83l.59,7.47a.72.72,0,0,0,.67.7h1.46l.1.77a.25.25,0,0,0,.23.23h-.1v17.91a.48.48,0,0,0-.27.45l-.22,11.72c0,.26.18.47.41.92h1.57c.23-.45.41-.66.41-.92L338,123.86c0-.24-.68-.45-.68-.45l-.07-17.91h0a.26.26,0,0,0,.23-.23l.1-.77h1.73a.73.73,0,0,0,.67-.7l.59-7.47A.72.72,0,0,0,339.91,95.5Zm-3.14,2h.45c.1-.73.18-.64.07-.52v6.64c0,.11,0,.21-.13.88h-.33c-.1-.67-.18-.77-.54-.88V97C336.59,96.86,336.67,96.77,336.77,97.5Zm-1.55,7h-.32a.2.2,0,0,1-.18-.19l-.4-6.6a.19.19,0,0,1,.18-.21h.44a.18.18,0,0,1,.18.19l.28,6.59A.2.2,0,0,1,335.22,104.5Zm4-.19a.2.2,0,0,1-.18.19h-.32a.2.2,0,0,1-.18-.22l.28-6.59a.18.18,0,0,1,.18-.19h.44a.19.19,0,0,1,.18.21Z" transform="translate(-148.71 -95.5)"/><path class="cls-1" d="M318.43,105.09a8.31,8.31,0,0,0-1.79.19c-1.26-4.53-5-7.71-9.35-7.71s-8.09,3.18-9.35,7.71a8.31,8.31,0,0,0-1.79-.19c-5.41,0-9.8,4.94-9.8,11,0,4.85,2.87,9.13,6.94,10.52v8.89h28v-8.89c4.07-1.39,6.94-5.67,6.94-10.52C328.23,110,323.84,105.09,318.43,105.09ZM295.29,132.5v-4.2c.25,0,.51,0,.76,0a9,9,0,0,0,5.13-1.6,10.09,10.09,0,0,0,12.22,0,9,9,0,0,0,5.13,1.6c.25,0,.51,0,.76,0v4.2ZM320,123.74a6.34,6.34,0,0,1-1.56.19A6.91,6.91,0,0,1,314,122.3l-.63-.52-.61.54a7.85,7.85,0,0,1-10.62,0l-.61-.54-.63.52a6.91,6.91,0,0,1-4.43,1.63,6.34,6.34,0,0,1-1.56-.19h0c-3.49-.83-6-4.39-6-8.45,0-4.77,3.4-8.64,7.58-8.64a6.58,6.58,0,0,1,1.71.22c.15.73.3,1.45.47,2.17s.3,1.18.47,1.76.35,1.17.57,1.72c-.05-.6-.06-1.21-.06-1.81s0-1.2,0-1.8.06-1,.1-1.51h0l.22-1.28c.68-4.05,3.81-7,7.44-7,3.39,0,6.35,2.57,7.28,6.22l-.12.09a8.6,8.6,0,0,0-.85.75,8.83,8.83,0,0,0-1.41,1.8,9,9,0,0,0-.89,2.12,8.11,8.11,0,0,0-.31,2.23,7.37,7.37,0,0,1,.78-2,7.14,7.14,0,0,1,1.2-1.59,6.54,6.54,0,0,1,1.5-1.11,3.51,3.51,0,0,1,.55-.27l1-.36a6.76,6.76,0,0,1,2.22-.37c4.18,0,7.58,3.87,7.58,8.64C326,119.35,323.45,122.91,320,123.74Z" transform="translate(-148.71 -95.5)"/><path class="cls-2" d="M323.87,160.31l-15.24-16.85a2.8,2.8,0,0,0-4.22,0l-15.24,16.85a3.57,3.57,0,0,0,0,4.67l15.24,16.84a2.78,2.78,0,0,0,4.22,0L323.87,165A3.55,3.55,0,0,0,323.87,160.31ZM306.29,150c-.75-.63-.29-1.13.27-1.13s1,.5,1.73,1.13v10.35c-.71.62-1.16,1.13-1.73,1.13s-1-.51-.27-1.13Zm.23,22.39c-5.25,0-9.52-4.72-9.52-10.52a11,11,0,0,1,3.43-8.09,1,1,0,0,1,1.44.14,1.22,1.22,0,0,1-.13,1.59,8.58,8.58,0,0,0-2.7,6.36c0,4.56,3.36,8.27,7.48,8.27s7.49-3.71,7.49-8.27a8.62,8.62,0,0,0-2.69-6.35,1.22,1.22,0,0,1-.12-1.59,1,1,0,0,1,1.43-.14,11,11,0,0,1,3.42,8.08C316.05,167.7,311.77,172.42,306.52,172.42Z" transform="translate(-148.71 -95.5)"/><path class="cls-3" d="M168.14,179.07a15.1,15.1,0,0,0,6-1.24,16.7,16.7,0,0,0,5.53-4.06L182,177a19.19,19.19,0,0,1-6.38,4.46,19.69,19.69,0,0,1-8,1.64,22.74,22.74,0,0,1-7.84-1.27,16,16,0,0,1-6-3.77,16.89,16.89,0,0,1-3.82-6.14,24.53,24.53,0,0,1-1.34-8.43A24.78,24.78,0,0,1,150,155a17,17,0,0,1,3.74-6.15,15.68,15.68,0,0,1,5.86-3.76,21.57,21.57,0,0,1,7.58-1.27,19.69,19.69,0,0,1,8,1.64,19.42,19.42,0,0,1,6.38,4.45l-2.31,3.18a16.8,16.8,0,0,0-5.53-4,15.13,15.13,0,0,0-6-1.25,11.76,11.76,0,0,0-4.67.93,9.74,9.74,0,0,0-3.74,2.84,13.93,13.93,0,0,0-2.48,4.85,27.83,27.83,0,0,0,0,14,13.35,13.35,0,0,0,2.54,4.85,10.31,10.31,0,0,0,3.89,2.84A12.77,12.77,0,0,0,168.14,179.07Z" transform="translate(-148.71 -95.5)"/><path class="cls-3" d="M211.29,182.5h-7V165.7q0-3.84-1.6-5.52a6.09,6.09,0,0,0-4.62-1.68h-5.78v24h-6v-37h6v10h6q6.63,0,9.81,2.67t3.17,8Z" transform="translate(-148.71 -95.5)"/><path class="cls-3" d="M231.5,180.71a10,10,0,0,0,4.23-.9,16.1,16.1,0,0,0,3.86-2.55l1.85,3.19a11.43,11.43,0,0,1-2.06,1.64,13.3,13.3,0,0,1-2.54,1.24,18.7,18.7,0,0,1-2.85.8,15.55,15.55,0,0,1-3,.29,17.59,17.59,0,0,1-6-1,12.53,12.53,0,0,1-4.6-2.86,13,13,0,0,1-2.94-4.64,18,18,0,0,1-1-6.36,18.52,18.52,0,0,1,1-6.33,13.17,13.17,0,0,1,2.77-4.67,11.78,11.78,0,0,1,4.24-2.86,15.12,15.12,0,0,1,10.63,0,12,12,0,0,1,4.26,2.79,13.56,13.56,0,0,1,2.87,4.42,15.37,15.37,0,0,1,1.06,5.88v3.72H223.54q.56,4.4,2.66,6.3A7.6,7.6,0,0,0,231.5,180.71Zm-1.39-22.81a5.43,5.43,0,0,0-2.49.58,5.36,5.36,0,0,0-2,1.85,10.82,10.82,0,0,0-1.38,3.29,20.33,20.33,0,0,0-.58,4.88h13a18,18,0,0,0-.56-4.77,10.88,10.88,0,0,0-1.45-3.32,5.94,5.94,0,0,0-2.08-1.91A5.25,5.25,0,0,0,230.11,157.9Z" transform="translate(-148.71 -95.5)"/><path class="cls-3" d="M250.29,156q0-5.21,2.61-8.17c1.75-2,4.23-3,7.46-3a10.46,10.46,0,0,1,3.28.53,13.22,13.22,0,0,1,2.94,1.32l-1.29,3.45a9.85,9.85,0,0,0-2-1.09,6.3,6.3,0,0,0-2.49-.51,3.67,3.67,0,0,0-1.71.43,3.93,3.93,0,0,0-1.44,1.3,7.13,7.13,0,0,0-1,2.3,14.12,14.12,0,0,0-.36,3.4v.53h7v3h-7v23h-6v-22h-4v-4h4Z" transform="translate(-148.71 -95.5)"/><path class="cls-3" d="M355.29,182.5h-6V165.7q0-3.84-1.6-5.52a6.09,6.09,0,0,0-4.62-1.68h-5.78v24h-7v-27h12.27q6.51,0,9.62,2.67t3.11,8Z" transform="translate(-148.71 -95.5)"/><path class="cls-3" d="M272.29,156q0-5.21,2.61-8.17c1.75-2,4.23-3,7.46-3a10.46,10.46,0,0,1,3.28.53,13.22,13.22,0,0,1,2.94,1.32l-1.29,3.45a10.13,10.13,0,0,0-2-1.09,6.34,6.34,0,0,0-2.49-.51,3.67,3.67,0,0,0-1.71.43,3.93,3.93,0,0,0-1.44,1.3,7.13,7.13,0,0,0-1,2.3,14.12,14.12,0,0,0-.36,3.4v.53h7v3h-7v23h-6v-22h-4v-4h4Z" transform="translate(-148.71 -95.5)"/><path class="cls-1" d="M324,175c-.38-.43-.82-.17-1,.6,0,0,.53-.26.53,1.08,0,1.56-.69,4.19-2.21,5.17a3.87,3.87,0,0,1-1.22.38H320a5.53,5.53,0,0,1-1.25-.09c-3.44-.64-5-9.49-8.11-9.49s-3.87,5.17-3.87,5.17-.74-5.17-3.86-5.17-4.68,8.85-8.11,9.49a5.53,5.53,0,0,1-1.25.09h-.13a3.79,3.79,0,0,1-1.22-.38c-1.52-1-2.22-3.61-2.22-5.17,0-1.34.54-1.08.54-1.08-.2-.77-.65-1-1-.6a3.84,3.84,0,0,0-.47,2.28c0,.33,0,.65,0,1a25.46,25.46,0,0,0,2.21,8.46c1.65,3.71,3.9,5.77,6.39,5.77,7.16,0,9.1-7.22,9.1-9.27,0,2.05,1.95,9.27,9.11,9.27,2.49,0,4.74-2.06,6.39-5.77a25.46,25.46,0,0,0,2.21-8.46c0-.32,0-.64,0-1A3.91,3.91,0,0,0,324,175Z" transform="translate(-148.71 -95.5)"/></svg>